# xmcd
#
# Track frame offsets:
#	150
#	11227
#	24648
#	34998
#	45238
#	55513
#	65396
#	75249
#	85920
#	91239
#	101324
#	111619
#	122512
#	134257
#	145236
#	155971
#
# Disc length: 2366 seconds
#
# Revision: 0
# Processed by: cddbd v1.5.2PL0 Copyright (c) Steve Scherf et al.
# Submitted via: EZCDAudioConverter 5.0.5.1
#
DISCID=cb093c10
DTITLE=Johnny Winter - Original Winter
DYEAR=1900
DGENRE=Blues
TTITLE0=Oh My Darling
TTITLE1=Fiver After Four AM
TTITLE2=That's What Love Does
TTITLE3=The Guy You Left Behind
TTITLE4=38-32-20 Blues
TTITLE5=Hey Hey Hey
TTITLE6=Creepy
TTITLE7=Gone For Bad
TTITLE8=My Baby
TTITLE9=Night Ride
TTITLE10=One Night Of Love
TTITLE11=Suicide Won't Satisfy
TTITLE12=You'll Be The Death Of Me
TTITLE13=Ballad Of Bertha Glutz
TTITLE14=Raindrops In My Heart
TTITLE15=Black Cat Bone
EXTD=
EXTT0=
EXTT1=
EXTT2=
EXTT3=
EXTT4=
EXTT5=
EXTT6=
EXTT7=
EXTT8=
EXTT9=
EXTT10=
EXTT11=
EXTT12=
EXTT13=
EXTT14=
EXTT15=
PLAYORDER=
